<svg xmlns="http://www.w3.org/2000/svg" xmlns:xlink="http://www.w3.org/1999/xlink" width="128" zoomAndPan="magnify" viewBox="0 0 96 95.999999" height="128" preserveAspectRatio="xMidYMid meet" version="1.0"><defs><clipPath id="07fc9754d8"><path d="M 29 4 L 67 4 L 67 56 L 29 56 Z M 29 4 " clip-rule="nonzero"/></clipPath><clipPath id="84b1d90719"><path d="M 44.015625 4.78125 L 66.847656 47.96875 L 51.972656 55.832031 L 29.144531 12.644531 Z M 44.015625 4.78125 " clip-rule="nonzero"/></clipPath><clipPath id="30f00dd5f3"><path d="M 29 40 L 67 40 L 67 92 L 29 92 Z M 29 40 " clip-rule="nonzero"/></clipPath><clipPath id="9a271552e8"><path d="M 29.199219 83.394531 L 52.078125 40.167969 L 66.851562 47.988281 L 43.972656 91.214844 Z M 29.199219 83.394531 " clip-rule="nonzero"/></clipPath></defs><g clip-path="url(#07fc9754d8)"><g clip-path="url(#84b1d90719)"><path fill="#cccccc" d="M 44.015625 4.78125 L 66.835938 47.949219 L 51.964844 55.8125 L 29.144531 12.644531 Z M 44.015625 4.78125 " fill-opacity="1" fill-rule="nonzero"/></g></g><g clip-path="url(#30f00dd5f3)"><g clip-path="url(#9a271552e8)"><path fill="#cccccc" d="M 29.199219 83.394531 L 52.078125 40.167969 L 66.851562 47.988281 L 43.972656 91.214844 Z M 29.199219 83.394531 " fill-opacity="1" fill-rule="nonzero"/></g></g></svg>